<?xml version="1.0" encoding="utf-8"?>
<!-- Generator: Adobe Illustrator 27.4.0, SVG Export Plug-In . SVG Version: 6.00 Build 0)  -->
<svg version="1.1" id="Layer_1" xmlns="http://www.w3.org/2000/svg" xmlns:xlink="http://www.w3.org/1999/xlink" x="0px" y="0px"
	 viewBox="0 0 600 258" style="enable-background:new 0 0 600 258;" xml:space="preserve">
<style type="text/css">
	.st0{fill-rule:evenodd;clip-rule:evenodd;fill:#00953B;}
	.st1{fill:#00953B;}
</style>
<g>
	<path class="st0" d="M84.14,76.28c-12.79,0-24.59,4.23-34.09,11.36V19.46c0-6.28-5.09-11.37-11.37-11.37
		c-6.27,0-11.36,5.09-11.36,11.37V133.1c0,31.38,25.44,56.82,56.81,56.82c31.38,0,56.82-25.44,56.82-56.82
		C140.96,101.72,115.53,76.28,84.14,76.28z M84.14,167.19c-18.83,0-34.09-15.27-34.09-34.1S65.32,99,84.14,99
		c18.83,0,34.1,15.27,34.1,34.1S102.98,167.19,84.14,167.19z"/>
	<g>
		<path class="st0" d="M572.67,19.46v159.09c0,6.28-5.09,11.37-11.36,11.37c-6.28,0-11.37-5.09-11.37-11.37V19.46
			c0-6.28,5.09-11.37,11.37-11.37C567.59,8.09,572.67,13.18,572.67,19.46z"/>
	</g>
	<path class="st0" d="M245.37,76.28c-31.38,0-56.82,25.44-56.82,56.82c0,31.38,25.44,56.82,56.82,56.82
		c31.38,0,56.81-25.44,56.81-56.82C302.18,101.72,276.75,76.28,245.37,76.28z M245.37,167.19c-18.83,0-34.1-15.27-34.1-34.1
		S226.53,99,245.37,99c18.83,0,34.09,15.27,34.09,34.1S264.2,167.19,245.37,167.19z"/>
	<g>
		<path class="st0" d="M405.9,149.72c-3.53,0-6.69,1.61-8.77,4.13c-0.11,0.15-0.22,0.28-0.34,0.43
			c-6.24,7.87-15.89,12.91-26.71,12.91c-7.09,0-13.67-2.16-19.13-5.87l52.7-34.22l11.76-7.63c5.01-3.25,6.61-9.78,3.8-14.93
			c-0.01-0.02-0.45-0.76-0.46-0.78c-9.94-16.47-28.02-27.48-48.66-27.48c-31.38,0-56.82,25.44-56.82,56.82
			c0,8.02,1.66,15.66,4.67,22.58c3.06,7.08,7.52,13.4,13.03,18.64c10.19,9.67,23.96,15.61,39.12,15.61
			c18.08,0,34.2-8.45,44.59-21.61c0.11-0.14,0.22-0.28,0.34-0.43c1.42-1.89,2.26-4.25,2.26-6.79
			C417.26,154.8,412.18,149.72,405.9,149.72z M335.98,133.1c0-18.83,15.26-34.1,34.1-34.1c8.53,0,16.33,3.14,22.31,8.32L337.44,143
			C336.49,139.86,335.98,136.54,335.98,133.1z"/>
	</g>
	<g>
		<path class="st0" d="M521.61,149.72c-3.66,0-6.92,1.73-9,4.43c-6.24,7.95-15.94,13.05-26.82,13.05c-7.09,0-13.67-2.16-19.13-5.87
			l52.69-34.22l11.76-7.63c5.01-3.25,6.61-9.79,3.79-14.95c-0.09-0.18-0.46-0.77-0.46-0.78c-9.95-16.45-28.02-27.46-48.65-27.46
			c-31.38,0-56.82,25.44-56.82,56.82c0,8.02,1.66,15.66,4.67,22.58c3.06,7.08,7.52,13.4,13.03,18.64
			c10.19,9.67,23.96,15.61,39.12,15.61c18.08,0,34.19-8.45,44.59-21.61c0.11-0.14,0.22-0.28,0.34-0.43
			c1.42-1.89,2.26-4.25,2.26-6.79C532.97,154.8,527.89,149.72,521.61,149.72z M451.69,133.1c0-18.83,15.27-34.1,34.1-34.1
			c8.53,0,16.33,3.14,22.31,8.32L453.15,143C452.2,139.86,451.69,136.54,451.69,133.1z"/>
	</g>
	<g>
		<path class="st0" d="M176.34,87.64v90.91c0,6.28-5.09,11.37-11.37,11.37c-6.27,0-11.36-5.09-11.36-11.37V87.64
			c0-6.27,5.09-11.36,11.36-11.36C171.25,76.28,176.34,81.37,176.34,87.64z"/>
		<circle class="st0" cx="164.97" cy="53.55" r="12.5"/>
	</g>
	<g>
		<path class="st1" d="M27.31,229.09c0-7,5.34-12.4,12.58-12.4s12.59,5.39,12.59,12.4c0,7-5.35,12.39-12.59,12.39
			S27.31,236.09,27.31,229.09z M48.7,229.09c0-5.2-3.64-9.04-8.8-9.04c-5.11,0-8.8,3.83-8.8,9.04s3.64,9.03,8.8,9.03
			C45.05,238.13,48.7,234.3,48.7,229.09z"/>
		<path class="st1" d="M68.02,229.09c0-7,5.3-12.4,12.59-12.4c2.89,0,6.24,0.66,9.18,3.55c0.47,0.47,0.81,1.18,0.1,1.89l-0.52,0.52
			c-0.62,0.52-1.23,0.76-2.03,0c-2.75-2.46-4.97-2.6-6.67-2.6c-5.2,0-8.85,3.83-8.85,9.08c0,5.11,3.46,8.99,8.85,8.99
			c1.7,0,3.93-0.14,6.67-2.6c0.8-0.76,1.42-0.57,2.03,0l0.52,0.52c0.71,0.71,0.38,1.37-0.1,1.89c-2.93,2.89-6.29,3.55-9.18,3.55
			C73.32,241.48,68.02,236.09,68.02,229.09z"/>
		<path class="st1" d="M93.58,229.09c0-7,5.34-12.4,12.58-12.4s12.59,5.39,12.59,12.4c0,7-5.35,12.39-12.59,12.39
			S93.58,236.09,93.58,229.09z M114.97,229.09c0-5.2-3.64-9.04-8.8-9.04c-5.11,0-8.8,3.83-8.8,9.04s3.64,9.03,8.8,9.03
			C111.32,238.13,114.97,234.3,114.97,229.09z"/>
		<path class="st1" d="M161.87,226.54v13.01c0,0.81-0.47,1.37-1.28,1.37h-1.23c-0.81,0-1.23-0.57-1.23-1.37v-12.68
			c0-4.16-2.32-6.86-6.29-6.86c-3.98,0-6.86,2.7-6.86,6.86v12.68c0,0.81-0.42,1.37-1.23,1.37h-1.23c-0.81,0-1.28-0.57-1.28-1.37
			v-12.68c0-4.16-2.32-6.86-6.29-6.86c-3.98,0-6.86,2.7-6.86,6.86v12.68c0,0.81-0.43,1.37-1.28,1.37h-1.18
			c-0.81,0-1.28-0.57-1.28-1.37V218.4c0-0.85,0.47-1.37,1.28-1.37h0.95c0.81,0,1.28,0.52,1.28,1.37v1.94
			c1.66-2.27,4.35-3.64,7.81-3.64c3.93,0,6.76,1.8,8.23,4.73c1.61-2.89,4.63-4.73,8.61-4.73
			C158.37,216.69,161.87,220.76,161.87,226.54z"/>
		<path class="st1" d="M193.12,229.09c0,6.86-4.87,12.39-11.97,12.39c-3.55,0-6.43-1.42-8.47-3.55v10.6c0,0.85-0.42,1.37-1.28,1.37
			h-1.18c-0.81,0-1.28-0.52-1.28-1.37V218.4c0-0.85,0.47-1.37,1.28-1.37h1.04c0.85,0,1.28,0.52,1.28,1.37v1.89
			c2.08-2.22,5.06-3.59,8.61-3.59C188.25,216.69,193.12,222.18,193.12,229.09z M189.29,229.09c0-4.92-3.27-9.04-8.56-9.04
			c-4.5,0-8.42,2.98-8.42,9.04c0,6.01,3.88,9.03,8.42,9.03C186.02,238.13,189.29,234.01,189.29,229.09z"/>
		<path class="st1" d="M217.84,226.39v13.15c0,0.9-0.38,1.37-1.23,1.37h-0.95c-0.85,0-1.28-0.57-1.28-1.37v-1.75
			c-1.98,2.32-4.97,3.69-8.14,3.69c-5.49,0-9.18-3.07-9.18-7.71c0-4.73,4.02-7.9,10.03-7.9c2.79,0,5.16,0.76,7.15,1.7v-1.9
			c0-3.45-2.6-5.72-6.48-5.72c-2.22,0-4.83,0.71-7.14,2.46c-0.76,0.57-1.33,0.29-1.8-0.33l-0.29-0.38
			c-0.61-0.81-0.28-1.61,0.38-2.08c3.31-2.32,6.01-2.93,9.04-2.93C214.19,216.69,217.84,220.15,217.84,226.39z M214.29,232.31v-1.51
			c-1.51-0.76-4.16-1.85-7.05-1.85c-3.88,0-6.43,1.99-6.43,4.87c0,2.7,2.37,4.45,5.87,4.45C210.46,238.27,214.29,236,214.29,232.31z
			"/>
		<path class="st1" d="M245.91,226.54v13.01c0,0.81-0.43,1.37-1.28,1.37h-1.18c-0.81,0-1.28-0.57-1.28-1.37v-12.68
			c0-4.16-2.55-6.86-6.58-6.86c-4.07,0-6.95,2.7-6.95,6.86v12.68c0,0.81-0.43,1.37-1.28,1.37h-1.18c-0.81,0-1.28-0.57-1.28-1.37
			V218.4c0-0.85,0.47-1.37,1.28-1.37h0.95c0.81,0,1.28,0.52,1.28,1.37v1.94c1.66-2.27,4.35-3.64,7.86-3.64
			C242.22,216.69,245.91,220.76,245.91,226.54z"/>
		<path class="st1" d="M251.98,209.74c0-1.61,1.33-2.94,2.93-2.94c1.61,0,2.94,1.33,2.94,2.94c0,1.66-1.33,2.93-2.94,2.93
			C253.3,212.67,251.98,211.4,251.98,209.74z M253.02,239.55V218.4c0-0.85,0.47-1.37,1.28-1.37h1.18c0.81,0,1.28,0.52,1.28,1.37
			v21.15c0,0.81-0.47,1.37-1.28,1.37h-1.18C253.49,240.92,253.02,240.35,253.02,239.55z"/>
		<path class="st1" d="M275.02,238.22c2.08,0,4.73-0.57,7.29-2.7c0.85-0.71,1.46-0.62,2.03,0l0.47,0.42c0.71,0.76,0.38,1.42-0.1,1.9
			c-2.84,2.74-6.86,3.64-9.7,3.64c-6.48,0-12.54-4.49-12.54-12.3c0-7.14,5.11-12.49,11.92-12.49c3.36,0,6.2,1.18,8.23,3.17
			c2.32,2.27,3.55,5.39,3.55,8.75c0,0.9-0.66,1.51-1.61,1.51h-18.26C266.75,235.34,270.72,238.22,275.02,238.22z M266.37,227.01
			h15.99c-0.29-1.94-1.04-3.59-2.18-4.73c-1.37-1.51-3.36-2.32-5.77-2.32C270.1,219.96,266.98,222.7,266.37,227.01z"/>
		<path class="st1" d="M316.11,218.68l-0.19,0.76c-0.29,0.95-0.99,1.04-1.7,0.85c-0.57-0.19-1.09-0.28-1.66-0.28
			c-3.5,0-5.58,3.12-5.58,7.38v12.16c0,0.81-0.43,1.37-1.28,1.37h-1.18c-0.81,0-1.28-0.57-1.28-1.37V218.4
			c0-0.85,0.47-1.37,1.28-1.37h0.95c0.81,0,1.28,0.52,1.28,1.37v1.99c1.28-2.27,3.31-3.69,6.15-3.69c1.09,0,1.61,0.1,2.41,0.29
			C315.97,217.17,316.45,217.55,316.11,218.68z"/>
		<path class="st1" d="M329.75,238.22c2.08,0,4.73-0.57,7.29-2.7c0.85-0.71,1.46-0.62,2.03,0l0.47,0.42c0.71,0.76,0.38,1.42-0.1,1.9
			c-2.84,2.74-6.86,3.64-9.7,3.64c-6.48,0-12.54-4.49-12.54-12.3c0-7.14,5.11-12.49,11.92-12.49c3.36,0,6.2,1.18,8.23,3.17
			c2.32,2.27,3.55,5.39,3.55,8.75c0,0.9-0.66,1.51-1.61,1.51h-18.26C321.47,235.34,325.45,238.22,329.75,238.22z M321.09,227.01
			h15.99c-0.29-1.94-1.04-3.59-2.18-4.73c-1.37-1.51-3.36-2.32-5.77-2.32C324.83,219.96,321.71,222.7,321.09,227.01z"/>
		<path class="st1" d="M344.53,237.7c-0.47-0.62-0.76-1.33,0.1-1.99l0.33-0.33c0.66-0.57,1.28-0.76,2.04,0.05
			c1.56,1.75,3.64,2.79,6.01,2.79c2.89,0,4.87-1.33,4.87-3.41c0-2.7-2.65-3.64-5.63-4.87c-3.36-1.37-6.72-2.84-6.72-6.67
			c0-3.98,3.17-6.58,7.99-6.58c2.56,0,5.16,0.85,7.19,3.03c0.57,0.57,0.85,1.23,0.1,2.03l-0.33,0.33c-0.52,0.52-1.23,0.85-2.03,0.1
			c-1.75-1.7-3.03-2.27-5.02-2.27c-2.51,0-4.12,1.23-4.12,3.03c0,1.89,1.9,2.79,4.5,3.93c4.07,1.75,7.86,3.12,7.86,7.9
			c0,4.07-3.41,6.72-8.47,6.72C350.16,241.48,346.66,240.21,344.53,237.7z"/>
		<path class="st1" d="M391.43,229.09c0,6.86-4.87,12.39-11.97,12.39c-3.55,0-6.43-1.42-8.47-3.55v10.6c0,0.85-0.42,1.37-1.28,1.37
			h-1.18c-0.81,0-1.28-0.52-1.28-1.37V218.4c0-0.85,0.47-1.37,1.28-1.37h1.04c0.85,0,1.28,0.52,1.28,1.37v1.89
			c2.08-2.22,5.06-3.59,8.61-3.59C386.55,216.69,391.43,222.18,391.43,229.09z M387.59,229.09c0-4.92-3.27-9.04-8.56-9.04
			c-4.5,0-8.42,2.98-8.42,9.04c0,6.01,3.88,9.03,8.42,9.03C384.33,238.13,387.59,234.01,387.59,229.09z"/>
		<path class="st1" d="M395.37,229.09c0-7,5.34-12.4,12.58-12.4c7.24,0,12.59,5.39,12.59,12.4c0,7-5.35,12.39-12.59,12.39
			C400.72,241.48,395.37,236.09,395.37,229.09z M416.76,229.09c0-5.2-3.64-9.04-8.8-9.04c-5.11,0-8.8,3.83-8.8,9.04
			s3.64,9.03,8.8,9.03C413.11,238.13,416.76,234.3,416.76,229.09z"/>
		<path class="st1" d="M447.15,226.54v13.01c0,0.81-0.43,1.37-1.28,1.37h-1.18c-0.81,0-1.28-0.57-1.28-1.37v-12.68
			c0-4.16-2.55-6.86-6.58-6.86c-4.07,0-6.95,2.7-6.95,6.86v12.68c0,0.81-0.43,1.37-1.28,1.37h-1.18c-0.81,0-1.28-0.57-1.28-1.37
			V218.4c0-0.85,0.47-1.37,1.28-1.37h0.95c0.81,0,1.28,0.52,1.28,1.37v1.94c1.66-2.27,4.35-3.64,7.86-3.64
			C443.45,216.69,447.15,220.76,447.15,226.54z"/>
		<path class="st1" d="M452.37,237.7c-0.47-0.62-0.76-1.33,0.1-1.99l0.33-0.33c0.66-0.57,1.28-0.76,2.04,0.05
			c1.56,1.75,3.64,2.79,6.01,2.79c2.89,0,4.87-1.33,4.87-3.41c0-2.7-2.65-3.64-5.63-4.87c-3.36-1.37-6.72-2.84-6.72-6.67
			c0-3.98,3.17-6.58,7.99-6.58c2.56,0,5.16,0.85,7.19,3.03c0.57,0.57,0.85,1.23,0.1,2.03l-0.33,0.33c-0.52,0.52-1.23,0.85-2.03,0.1
			c-1.75-1.7-3.03-2.27-5.02-2.27c-2.51,0-4.12,1.23-4.12,3.03c0,1.89,1.9,2.79,4.5,3.93c4.07,1.75,7.86,3.12,7.86,7.9
			c0,4.07-3.41,6.72-8.47,6.72C457.99,241.48,454.5,240.21,452.37,237.7z"/>
		<path class="st1" d="M494.11,226.39v13.15c0,0.9-0.38,1.37-1.23,1.37h-0.95c-0.85,0-1.28-0.57-1.28-1.37v-1.75
			c-1.98,2.32-4.97,3.69-8.14,3.69c-5.49,0-9.18-3.07-9.18-7.71c0-4.73,4.02-7.9,10.03-7.9c2.79,0,5.16,0.76,7.15,1.7v-1.9
			c0-3.45-2.6-5.72-6.48-5.72c-2.22,0-4.83,0.71-7.14,2.46c-0.76,0.57-1.33,0.29-1.8-0.33l-0.29-0.38
			c-0.61-0.81-0.28-1.61,0.38-2.08c3.31-2.32,6.01-2.93,9.04-2.93C490.46,216.69,494.11,220.15,494.11,226.39z M490.56,232.31v-1.51
			c-1.51-0.76-4.16-1.85-7.05-1.85c-3.88,0-6.43,1.99-6.43,4.87c0,2.7,2.37,4.45,5.87,4.45C486.73,238.27,490.56,236,490.56,232.31z
			"/>
		<path class="st1" d="M525.4,229.09c0,6.86-4.87,12.39-11.97,12.39c-3.64,0-6.58-1.42-8.61-3.69v1.75c0,0.81-0.47,1.37-1.28,1.37
			h-1.04c-0.81,0-1.28-0.57-1.28-1.37v-30.75c0-0.71,0.42-1.14,1.28-1.37l0.99-0.24c1.04-0.28,1.47,0.29,1.47,1.28v11.69
			c2.08-2.13,5.02-3.46,8.47-3.46C520.52,216.69,525.4,222.18,525.4,229.09z M521.56,229.09c0-4.92-3.27-9.04-8.56-9.04
			c-4.5,0-8.56,2.98-8.42,9.04c0.14,6.01,3.88,9.03,8.42,9.03C518.3,238.13,521.56,234.01,521.56,229.09z"/>
		<path class="st1" d="M530.14,209.74c0-1.61,1.33-2.94,2.93-2.94c1.61,0,2.94,1.33,2.94,2.94c0,1.66-1.33,2.93-2.94,2.93
			C531.46,212.67,530.14,211.4,530.14,209.74z M531.18,239.55V218.4c0-0.85,0.47-1.37,1.28-1.37h1.18c0.81,0,1.28,0.52,1.28,1.37
			v21.15c0,0.81-0.47,1.37-1.28,1.37h-1.18C531.65,240.92,531.18,240.35,531.18,239.55z"/>
		<path class="st1" d="M542.45,239.55v-30.75c0-0.71,0.42-1.14,1.28-1.37l0.99-0.24c1.04-0.28,1.47,0.29,1.47,1.28v31.09
			c0,0.81-0.47,1.37-1.28,1.37h-1.18C542.92,240.92,542.45,240.35,542.45,239.55z"/>
		<path class="st1" d="M572.69,226.39v13.15c0,0.9-0.38,1.37-1.23,1.37h-0.95c-0.85,0-1.28-0.57-1.28-1.37v-1.75
			c-1.98,2.32-4.97,3.69-8.14,3.69c-5.49,0-9.18-3.07-9.18-7.71c0-4.73,4.02-7.9,10.03-7.9c2.79,0,5.16,0.76,7.15,1.7v-1.9
			c0-3.45-2.6-5.72-6.48-5.72c-2.22,0-4.83,0.71-7.14,2.46c-0.76,0.57-1.33,0.29-1.8-0.33l-0.29-0.38
			c-0.61-0.81-0.28-1.61,0.38-2.08c3.31-2.32,6.01-2.93,9.04-2.93C569.05,216.69,572.69,220.15,572.69,226.39z M569.14,232.31v-1.51
			c-1.51-0.76-4.16-1.85-7.05-1.85c-3.88,0-6.43,1.99-6.43,4.87c0,2.7,2.37,4.45,5.87,4.45C565.31,238.27,569.14,236,569.14,232.31z
			 M555.99,207.66c-0.1-0.61,0.23-1.23,1.09-1.23h0.62c0.85,0,1.23,0.62,1.37,1.23c0.57,2.18,1.7,3.27,3.74,3.27
			c2.08,0,3.22-1.09,3.74-3.27c0.14-0.61,0.52-1.23,1.42-1.23h0.57c0.9,0,1.23,0.62,1.14,1.23c-0.57,3.69-3.31,6.06-6.86,6.06
			C559.25,213.71,556.56,211.35,555.99,207.66z"/>
	</g>
</g>
</svg>
